<?xml version="1.0" encoding="UTF-8" standalone="no"?>
<!-- Generator: Adobe Illustrator 16.0.0, SVG Export Plug-In . SVG Version: 6.00 Build 0)  -->

<svg
   xmlns:dc="http://purl.org/dc/elements/1.1/"
   xmlns:cc="http://creativecommons.org/ns#"
   xmlns:rdf="http://www.w3.org/1999/02/22-rdf-syntax-ns#"
   xmlns:svg="http://www.w3.org/2000/svg"
   xmlns="http://www.w3.org/2000/svg"
   xmlns:sodipodi="http://sodipodi.sourceforge.net/DTD/sodipodi-0.dtd"
   xmlns:inkscape="http://www.inkscape.org/namespaces/inkscape"
   version="1.1"
   id="Capa_1"
   x="0px"
   y="0px"
   width="100"
   height="100"
   viewBox="0 0 100 100"
   xml:space="preserve"
   sodipodi:docname="clipman.svg"
   inkscape:version="0.92.3 (2405546, 2018-03-11)"><metadata
   id="metadata41"><rdf:RDF><cc:Work
       rdf:about=""><dc:format>image/svg+xml</dc:format><dc:type
         rdf:resource="http://purl.org/dc/dcmitype/StillImage" /><dc:title></dc:title></cc:Work></rdf:RDF></metadata><defs
   id="defs39">
	
</defs><sodipodi:namedview
   pagecolor="#ffffff"
   bordercolor="#666666"
   borderopacity="1"
   objecttolerance="10"
   gridtolerance="10"
   guidetolerance="10"
   inkscape:pageopacity="0"
   inkscape:pageshadow="2"
   inkscape:window-width="1920"
   inkscape:window-height="1025"
   id="namedview37"
   showgrid="false"
   showguides="true"
   inkscape:guide-bbox="true"
   inkscape:zoom="3.7649685"
   inkscape:cx="66.667225"
   inkscape:cy="33.37788"
   inkscape:window-x="0"
   inkscape:window-y="27"
   inkscape:window-maximized="1"
   inkscape:current-layer="Capa_1"><sodipodi:guide
     position="478.68927,139.84181"
     orientation="0,1"
     id="guide869"
     inkscape:locked="false" /></sodipodi:namedview>

<g
   id="g6"
   transform="translate(0,-376)">
</g>
<g
   id="g8"
   transform="translate(0,-376)">
</g>
<g
   id="g10"
   transform="translate(0,-376)">
</g>
<g
   id="g12"
   transform="translate(0,-376)">
</g>
<g
   id="g14"
   transform="translate(0,-376)">
</g>
<g
   id="g16"
   transform="translate(0,-376)">
</g>
<g
   id="g18"
   transform="translate(0,-376)">
</g>
<g
   id="g20"
   transform="translate(0,-376)">
</g>
<g
   id="g22"
   transform="translate(0,-376)">
</g>
<g
   id="g24"
   transform="translate(0,-376)">
</g>
<g
   id="g26"
   transform="translate(0,-376)">
</g>
<g
   id="g28"
   transform="translate(0,-376)">
</g>
<g
   id="g30"
   transform="translate(0,-376)">
</g>
<g
   id="g32"
   transform="translate(0,-376)">
</g>
<g
   id="g34"
   transform="translate(0,-376)">
</g>
<path
   style="stroke-width:0.21008404;stroke:none;stroke-opacity:1;fill:#dfdbd3;fill-opacity:1"
   d="M 49.943359 5 C 47.213317 5 45 7.2133174 45 9.9433594 L 45 10.013672 C 45 11.189303 44.046724 12.142578 42.871094 12.142578 L 40.671875 12.142578 C 38.329018 12.142578 36.427734 14.041909 36.427734 16.384766 L 36.427734 16.470703 C 36.427734 18.81356 38.329018 20.714844 40.671875 20.714844 L 59.328125 20.714844 C 61.670982 20.714844 63.572266 18.81356 63.572266 16.470703 L 63.572266 16.384766 C 63.572266 14.041909 61.670982 12.142578 59.328125 12.142578 L 57.128906 12.142578 C 55.953276 12.142578 55 11.189303 55 10.013672 L 55 9.9433594 C 55 7.2133174 52.786683 5 50.056641 5 L 49.943359 5 z M 50 7.8574219 C 51.182773 7.8574219 52.142578 8.8170165 52.142578 10 C 52.142578 11.182983 51.182983 12.142578 50 12.142578 C 48.817227 12.142578 47.857422 11.182983 47.857422 10 C 47.857422 8.8172265 48.817227 7.8574219 50 7.8574219 z M 17.142578 15 C 15.415477 15 12.857422 17.559172 12.857422 20.714844 L 12.857422 95 L 87.142578 95 L 87.142578 20.714844 C 87.142578 17.559172 84.584243 15 80 15 L 66.289062 15 C 66.377719 15.448739 66.429688 15.910606 66.429688 16.384766 C 66.429688 20.386236 63.243882 23.572266 59.328125 23.572266 L 40.671875 23.572266 C 36.756119 23.572266 33.572266 20.384989 33.572266 16.470703 C 33.572266 15.965031 33.623643 15.474159 33.720703 15 L 17.142578 15 z M 20 30.714844 L 80 30.714844 L 80 87.857422 L 20 87.857422 L 20 30.714844 z M 24.201172 34.916016 L 24.201172 39.117188 L 75.798828 39.117188 L 75.798828 34.916016 L 24.201172 34.916016 z M 24.201172 43.318359 L 24.201172 47.521484 L 75.798828 47.521484 L 75.798828 43.318359 L 24.201172 43.318359 z M 24.201172 51.722656 L 24.201172 55.923828 L 75.798828 55.923828 L 75.798828 51.722656 L 24.201172 51.722656 z M 24.201172 60.126953 L 24.201172 64.328125 L 75.798828 64.328125 L 75.798828 60.126953 L 24.201172 60.126953 z M 24.201172 68.529297 L 24.201172 72.730469 L 75.798828 72.730469 L 75.798828 68.529297 L 24.201172 68.529297 z M 24.201172 76.933594 L 24.201172 81.134766 L 75.798828 81.134766 L 75.798828 76.933594 L 24.201172 76.933594 z "
   id="path2" /></svg>