<?xml version="1.0" encoding="UTF-8" standalone="no"?>
<!-- Created with Inkscape (http://www.inkscape.org/) -->

<svg
   xmlns:dc="http://purl.org/dc/elements/1.1/"
   xmlns:cc="http://creativecommons.org/ns#"
   xmlns:rdf="http://www.w3.org/1999/02/22-rdf-syntax-ns#"
   xmlns:svg="http://www.w3.org/2000/svg"
   xmlns="http://www.w3.org/2000/svg"
   xmlns:sodipodi="http://sodipodi.sourceforge.net/DTD/sodipodi-0.dtd"
   xmlns:inkscape="http://www.inkscape.org/namespaces/inkscape"
   version="1.1"
   id="svg2"
   xml:space="preserve"
   width="256"
   height="256"
   viewBox="0 0 256 256"
   sodipodi:docname="chrome.svg"
   inkscape:version="0.92.3 (2405546, 2018-03-11)"><metadata
     id="metadata8"><rdf:RDF><cc:Work
         rdf:about=""><dc:format>image/svg+xml</dc:format><dc:type
           rdf:resource="http://purl.org/dc/dcmitype/StillImage" /><dc:title></dc:title></cc:Work></rdf:RDF></metadata><defs
     id="defs6"><clipPath
       clipPathUnits="userSpaceOnUse"
       id="clipPath18"><path
         d="M 0,841.89 H 595.28 V 0 H 0 Z"
         id="path16"
         inkscape:connector-curvature="0" /></clipPath><clipPath
       clipPathUnits="userSpaceOnUse"
       id="clipPath46"><path
         d="m 223.723,422.104 c 0,-44.703 36.237,-80.945 80.945,-80.945 v 0 c 44.698,0 80.941,36.242 80.941,80.945 v 0 c 0,44.702 -36.243,80.941 -80.941,80.941 v 0 c -44.708,0 -80.945,-36.239 -80.945,-80.941"
         id="path44"
         inkscape:connector-curvature="0" /></clipPath><linearGradient
       x1="0"
       y1="0"
       x2="1"
       y2="0"
       gradientUnits="userSpaceOnUse"
       gradientTransform="matrix(0,-155.89822,-155.89822,0,304.66602,501.90137)"
       spreadMethod="pad"
       id="linearGradient56"><stop
         style="stop-opacity:1;stop-color:#96c1e9"
         offset="0"
         id="stop52" /><stop
         style="stop-opacity:1;stop-color:#136db5"
         offset="1"
         id="stop54" /></linearGradient><clipPath
       clipPathUnits="userSpaceOnUse"
       id="clipPath66"><path
         d="M 0,841.89 H 595.28 V 0 H 0 Z"
         id="path64"
         inkscape:connector-curvature="0" /></clipPath></defs><sodipodi:namedview
     pagecolor="#ffffff"
     bordercolor="#666666"
     borderopacity="1"
     objecttolerance="10"
     gridtolerance="10"
     guidetolerance="10"
     inkscape:pageopacity="0"
     inkscape:pageshadow="2"
     inkscape:window-width="1920"
     inkscape:window-height="1016"
     id="namedview4"
     showgrid="false"
     inkscape:zoom="0.4730428"
     inkscape:cx="553.72357"
     inkscape:cy="486.91862"
     inkscape:window-x="0"
     inkscape:window-y="27"
     inkscape:window-maximized="1"
     inkscape:current-layer="g10" /><g
     id="g10"
     inkscape:groupmode="layer"
     inkscape:label="google-chrome-seeklogo.com"
     transform="matrix(1.3333333,0,0,-1.3333333,0,255.99998)"><g
       id="g867"
       transform="matrix(0.44055123,0,0,0.43889679,-38.707786,-89.858119)"><g
         id="g12"><g
           clip-path="url(#clipPath18)"
           id="g14"><g
             transform="translate(305.2041,642.1577)"
             id="g20"><path
               inkscape:connector-curvature="0"
               id="path22"
               style="fill:#e6322a;fill-opacity:1;fill-rule:nonzero;stroke:none"
               d="M 0,0 C 0,0 128.478,5.783 196.57,-123.337 H -10.925 c 0,0 -39.186,1.289 -72.592,-46.256 -9.633,-19.915 -19.91,-40.472 -8.348,-80.937 -16.703,28.26 -88.652,153.53 -88.652,153.53 0,0 50.754,91.863 180.517,97" /></g><g
             transform="translate(495.0859,314.3271)"
             id="g24"><path
               inkscape:connector-curvature="0"
               id="path26"
               style="fill:#feda00;fill-opacity:1;fill-rule:nonzero;stroke:none"
               d="m 0,0 c 0,0 -59.247,-114.143 -205.118,-108.533 17.995,31.147 103.772,179.68 103.772,179.68 0,0 20.709,33.29 -3.744,85.991 -12.431,18.305 -25.09,37.487 -65.919,47.714 32.836,0.325 177.285,-0.021 177.285,-0.021 C 6.276,204.831 60.444,114.94 0,0" /></g><g
             transform="translate(116.2354,313.459)"
             id="g28"><path
               inkscape:connector-curvature="0"
               id="path30"
               style="fill:#66b54c;fill-opacity:1;fill-rule:nonzero;stroke:none"
               d="m 0,0 c 0,0 -69.223,108.394 8.58,231.908 17.979,-31.16 103.71,-179.72 103.71,-179.72 0,0 18.469,-34.579 76.341,-39.756 22.06,1.609 45.007,2.982 74.28,33.222 -16.139,-28.593 -88.673,-153.52 -88.673,-153.52 0,0 -104.929,-1.956 -174.238,107.866" /></g><g
             transform="translate(289.9678,204.7363)"
             id="g32"><path
               inkscape:connector-curvature="0"
               id="path34"
               style="fill:#61ac48;fill-opacity:1;fill-rule:nonzero;stroke:none"
               d="m 0,0 29.186,121.792 c 0,0 32.091,2.505 58.983,32.017 C 71.476,124.444 0,0 0,0" /></g><g
             transform="translate(207.4531,422.104)"
             id="g36"><path
               inkscape:connector-curvature="0"
               id="path38"
               style="fill:#ffffff;fill-opacity:1;fill-rule:nonzero;stroke:none"
               d="m 0,0 c 0,53.69 43.52,97.215 97.215,97.215 53.69,0 97.214,-43.525 97.214,-97.215 0,-53.694 -43.524,-97.218 -97.214,-97.218 C 43.52,-97.218 0,-53.694 0,0" /></g></g></g><g
         id="g40"><g
           clip-path="url(#clipPath46)"
           id="g42"><g
             id="g48"><g
               id="g50"><path
                 inkscape:connector-curvature="0"
                 id="path58"
                 style="fill:url(#linearGradient56);stroke:none"
                 d="m 223.723,422.104 c 0,-44.703 36.237,-80.945 80.945,-80.945 v 0 c 44.698,0 80.941,36.242 80.941,80.945 v 0 c 0,44.702 -36.243,80.941 -80.941,80.941 v 0 c -44.708,0 -80.945,-36.239 -80.945,-80.941" /></g></g></g></g><g
         id="g60"><g
           clip-path="url(#clipPath66)"
           id="g62"><g
             transform="translate(501.3623,519.1582)"
             id="g68"><path
               inkscape:connector-curvature="0"
               id="path70"
               style="fill:#f0cf00;fill-opacity:1;fill-rule:nonzero;stroke:none"
               d="m 0,0 -120.182,-35.237 c 0,0 -18.123,26.595 -57.103,35.258 C -143.511,0.136 0,0 0,0" /></g><g
             transform="translate(211,396)"
             id="g72"><path
               inkscape:connector-curvature="0"
               id="path74"
               style="fill:#da3028;fill-opacity:1;fill-rule:nonzero;stroke:none"
               d="M 0,0 C -16.89,29.25 -86.31,149.16 -86.31,149.16 L 2.72,61.09 c 0,0 -9.15,-18.82 -5.68,-45.7 z" /></g></g></g></g></g></svg>